%TF.GenerationSoftware,KiCad,Pcbnew,8.0.2-1.fc40*%
%TF.CreationDate,2024-06-26T22:38:01-04:00*%
%TF.ProjectId,BatBoard,42617442-6f61-4726-942e-6b696361645f,v1.0.0*%
%TF.SameCoordinates,Original*%
%TF.FileFunction,Paste,Bot*%
%TF.FilePolarity,Positive*%
%FSLAX46Y46*%
G04 Gerber Fmt 4.6, Leading zero omitted, Abs format (unit mm)*
G04 Created by KiCad (PCBNEW 8.0.2-1.fc40) date 2024-06-26 22:38:01*
%MOMM*%
%LPD*%
G01*
G04 APERTURE LIST*
G04 Aperture macros list*
%AMRoundRect*
0 Rectangle with rounded corners*
0 $1 Rounding radius*
0 $2 $3 $4 $5 $6 $7 $8 $9 X,Y pos of 4 corners*
0 Add a 4 corners polygon primitive as box body*
4,1,4,$2,$3,$4,$5,$6,$7,$8,$9,$2,$3,0*
0 Add four circle primitives for the rounded corners*
1,1,$1+$1,$2,$3*
1,1,$1+$1,$4,$5*
1,1,$1+$1,$6,$7*
1,1,$1+$1,$8,$9*
0 Add four rect primitives between the rounded corners*
20,1,$1+$1,$2,$3,$4,$5,0*
20,1,$1+$1,$4,$5,$6,$7,0*
20,1,$1+$1,$6,$7,$8,$9,0*
20,1,$1+$1,$8,$9,$2,$3,0*%
%AMRotRect*
0 Rectangle, with rotation*
0 The origin of the aperture is its center*
0 $1 length*
0 $2 width*
0 $3 Rotation angle, in degrees counterclockwise*
0 Add horizontal line*
21,1,$1,$2,0,0,$3*%
G04 Aperture macros list end*
%ADD10RoundRect,0.250000X-1.050000X-1.000000X1.050000X-1.000000X1.050000X1.000000X-1.050000X1.000000X0*%
%ADD11R,0.910000X1.430000*%
%ADD12R,0.910000X1.440000*%
%ADD13R,1.400000X1.000000*%
%ADD14RoundRect,0.250000X-1.207696X-0.802477X0.860400X-1.167138X1.207696X0.802477X-0.860400X1.167138X0*%
%ADD15RoundRect,0.250000X-1.440971X0.161559X-0.091117X-1.447134X1.440971X-0.161559X0.091117X1.447134X0*%
%ADD16RotRect,1.400000X1.000000X50.000000*%
%ADD17RotRect,1.430000X0.910000X280.000000*%
%ADD18RotRect,1.440000X0.910000X280.000000*%
%ADD19RotRect,1.430000X0.910000X320.000000*%
%ADD20RotRect,1.440000X0.910000X320.000000*%
%ADD21RotRect,1.400000X1.000000X350.000000*%
%ADD22RoundRect,0.250000X0.091117X-1.447134X1.440971X0.161559X-0.091117X1.447134X-1.440971X-0.161559X0*%
%ADD23RotRect,1.400000X1.000000X10.000000*%
%ADD24RotRect,1.430000X0.910000X220.000000*%
%ADD25RotRect,1.440000X0.910000X220.000000*%
%ADD26RotRect,1.400000X1.000000X310.000000*%
%ADD27RoundRect,0.250000X-0.860400X-1.167138X1.207696X-0.802477X0.860400X1.167138X-1.207696X0.802477X0*%
%ADD28RotRect,1.430000X0.910000X260.000000*%
%ADD29RotRect,1.440000X0.910000X260.000000*%
G04 APERTURE END LIST*
D10*
%TO.C,S52*%
X287770637Y-162650000D03*
X302070637Y-163700000D03*
%TD*%
D11*
%TO.C,D53*%
X301540637Y-132772500D03*
D12*
X301540637Y-135507500D03*
%TD*%
D10*
%TO.C,S17*%
X118150000Y-176200000D03*
X132450000Y-177250000D03*
%TD*%
%TO.C,S20*%
X118150000Y-119050000D03*
X132450000Y-120100000D03*
%TD*%
%TO.C,S53*%
X287770637Y-143600000D03*
X302070637Y-144650000D03*
%TD*%
D11*
%TO.C,D24*%
X150970000Y-113722500D03*
D12*
X150970000Y-116457500D03*
%TD*%
D13*
%TO.C,LED51*%
X297770637Y-173000000D03*
X297770637Y-171600000D03*
X292370637Y-171600000D03*
X292370637Y-173000000D03*
%TD*%
%TO.C,LED48*%
X316820637Y-148450000D03*
X316820637Y-147050000D03*
X311420637Y-147050000D03*
X311420637Y-148450000D03*
%TD*%
%TO.C,LED52*%
X297770637Y-153950000D03*
X297770637Y-152550000D03*
X292370637Y-152550000D03*
X292370637Y-153950000D03*
%TD*%
D10*
%TO.C,S34*%
X383020637Y-122550000D03*
X397320637Y-123600000D03*
%TD*%
%TO.C,S19*%
X118150000Y-138100000D03*
X132450000Y-139150000D03*
%TD*%
%TO.C,S36*%
X363970637Y-160650000D03*
X378270637Y-161700000D03*
%TD*%
%TO.C,S47*%
X306820637Y-176200000D03*
X321120637Y-177250000D03*
%TD*%
D13*
%TO.C,LED34*%
X393020637Y-113850000D03*
X393020637Y-112450000D03*
X387620637Y-112450000D03*
X387620637Y-113850000D03*
%TD*%
%TO.C,LED11*%
X90050000Y-127900000D03*
X90050000Y-126500000D03*
X84650000Y-126500000D03*
X84650000Y-127900000D03*
%TD*%
%TO.C,LED25*%
X118625000Y-191312500D03*
X118625000Y-189912500D03*
X113225000Y-189912500D03*
X113225000Y-191312500D03*
%TD*%
D11*
%TO.C,D13*%
X112870000Y-160872500D03*
D12*
X112870000Y-163607500D03*
%TD*%
D13*
%TO.C,LED4*%
X51950000Y-113850000D03*
X51950000Y-112450000D03*
X46550000Y-112450000D03*
X46550000Y-113850000D03*
%TD*%
D10*
%TO.C,S33*%
X383020637Y-141600000D03*
X397320637Y-142650000D03*
%TD*%
D14*
%TO.C,S26*%
X132318864Y-200788764D03*
X146219284Y-204305981D03*
%TD*%
D10*
%TO.C,S14*%
X99100000Y-152650000D03*
X113400000Y-153700000D03*
%TD*%
D11*
%TO.C,D14*%
X112870000Y-141822500D03*
D12*
X112870000Y-144557500D03*
%TD*%
D15*
%TO.C,S29*%
X170972505Y-194758108D03*
X179360021Y-206387471D03*
%TD*%
D11*
%TO.C,D39*%
X358690637Y-163872500D03*
D12*
X358690637Y-166607500D03*
%TD*%
D10*
%TO.C,S4*%
X41950000Y-122550000D03*
X56250000Y-123600000D03*
%TD*%
D11*
%TO.C,D49*%
X320590637Y-127272500D03*
D12*
X320590637Y-130007500D03*
%TD*%
D13*
%TO.C,LED19*%
X128150000Y-129400000D03*
X128150000Y-128000000D03*
X122750000Y-128000000D03*
X122750000Y-129400000D03*
%TD*%
%TO.C,LED44*%
X335870637Y-143950000D03*
X335870637Y-142550000D03*
X330470637Y-142550000D03*
X330470637Y-143950000D03*
%TD*%
%TO.C,LED36*%
X373970637Y-151950000D03*
X373970637Y-150550000D03*
X368570637Y-150550000D03*
X368570637Y-151950000D03*
%TD*%
D10*
%TO.C,S22*%
X137200000Y-162650000D03*
X151500000Y-163700000D03*
%TD*%
D13*
%TO.C,LED22*%
X147200000Y-153950000D03*
X147200000Y-152550000D03*
X141800000Y-152550000D03*
X141800000Y-153950000D03*
%TD*%
D10*
%TO.C,S39*%
X344920637Y-174700000D03*
X359220637Y-175750000D03*
%TD*%
%TO.C,S23*%
X137200000Y-143600000D03*
X151500000Y-144650000D03*
%TD*%
D11*
%TO.C,D18*%
X131920000Y-146322500D03*
D12*
X131920000Y-149057500D03*
%TD*%
D10*
%TO.C,S7*%
X61000000Y-141600000D03*
X75300000Y-142650000D03*
%TD*%
%TO.C,S1*%
X41950000Y-179700000D03*
X56250000Y-180750000D03*
%TD*%
D11*
%TO.C,D19*%
X131920000Y-127272500D03*
D12*
X131920000Y-130007500D03*
%TD*%
D13*
%TO.C,LED6*%
X71000000Y-151950000D03*
X71000000Y-150550000D03*
X65600000Y-150550000D03*
X65600000Y-151950000D03*
%TD*%
%TO.C,LED50*%
X316820637Y-110350000D03*
X316820637Y-108950000D03*
X311420637Y-108950000D03*
X311420637Y-110350000D03*
%TD*%
D10*
%TO.C,S12*%
X80050000Y-117550000D03*
X94350000Y-118600000D03*
%TD*%
%TO.C,S54*%
X287770637Y-124550000D03*
X302070637Y-125600000D03*
%TD*%
D11*
%TO.C,D2*%
X55720000Y-149822500D03*
D12*
X55720000Y-152557500D03*
%TD*%
D15*
%TO.C,S28*%
X168656602Y-221634661D03*
X177044118Y-233264024D03*
%TD*%
D11*
%TO.C,D41*%
X358690637Y-125772500D03*
D12*
X358690637Y-128507500D03*
%TD*%
D16*
%TO.C,LED60*%
X247299577Y-208393571D03*
X246227114Y-207493669D03*
X242756061Y-211630309D03*
X243828524Y-212530211D03*
%TD*%
D13*
%TO.C,LED3*%
X51950000Y-132900000D03*
X51950000Y-131500000D03*
X46550000Y-131500000D03*
X46550000Y-132900000D03*
%TD*%
D11*
%TO.C,D1*%
X55720000Y-168872500D03*
D12*
X55720000Y-171607500D03*
%TD*%
D13*
%TO.C,LED15*%
X109100000Y-124900000D03*
X109100000Y-123500000D03*
X103700000Y-123500000D03*
X103700000Y-124900000D03*
%TD*%
D17*
%TO.C,D56*%
X304576995Y-190530358D03*
D18*
X305051923Y-193223807D03*
%TD*%
D10*
%TO.C,S49*%
X306820637Y-138100000D03*
X321120637Y-139150000D03*
%TD*%
D11*
%TO.C,D46*%
X339640637Y-103722500D03*
D12*
X339640637Y-106457500D03*
%TD*%
D19*
%TO.C,D58*%
X262621994Y-216459762D03*
D20*
X264717126Y-218217786D03*
%TD*%
D10*
%TO.C,S9*%
X80050000Y-174700000D03*
X94350000Y-175750000D03*
%TD*%
D11*
%TO.C,D34*%
X396790637Y-111722500D03*
D12*
X396790637Y-114457500D03*
%TD*%
D13*
%TO.C,LED46*%
X335870637Y-105850000D03*
X335870637Y-104450000D03*
X330470637Y-104450000D03*
X330470637Y-105850000D03*
%TD*%
D21*
%TO.C,LED26*%
X143677680Y-193957419D03*
X143920788Y-192578688D03*
X138602826Y-191640987D03*
X138359718Y-193019718D03*
%TD*%
D13*
%TO.C,LED9*%
X90050000Y-166000000D03*
X90050000Y-164600000D03*
X84650000Y-164600000D03*
X84650000Y-166000000D03*
%TD*%
D11*
%TO.C,D8*%
X74770000Y-111722500D03*
D12*
X74770000Y-114457500D03*
%TD*%
D13*
%TO.C,LED39*%
X354920637Y-166000000D03*
X354920637Y-164600000D03*
X349520637Y-164600000D03*
X349520637Y-166000000D03*
%TD*%
D10*
%TO.C,S5*%
X61000000Y-179700000D03*
X75300000Y-180750000D03*
%TD*%
D13*
%TO.C,LED17*%
X128150000Y-167500000D03*
X128150000Y-166100000D03*
X122750000Y-166100000D03*
X122750000Y-167500000D03*
%TD*%
D10*
%TO.C,S3*%
X41950000Y-141600000D03*
X56250000Y-142650000D03*
%TD*%
D11*
%TO.C,D44*%
X339640637Y-141822500D03*
D12*
X339640637Y-144557500D03*
%TD*%
D11*
%TO.C,D36*%
X377740637Y-149822500D03*
D12*
X377740637Y-152557500D03*
%TD*%
D11*
%TO.C,D23*%
X150970000Y-132772500D03*
D12*
X150970000Y-135507500D03*
%TD*%
D22*
%TO.C,S59*%
X259749252Y-207091424D03*
X269745461Y-196811915D03*
%TD*%
D11*
%TO.C,D55*%
X330115637Y-189185000D03*
D12*
X330115637Y-191920000D03*
%TD*%
D13*
%TO.C,LED40*%
X354920637Y-146950000D03*
X354920637Y-145550000D03*
X349520637Y-145550000D03*
X349520637Y-146950000D03*
%TD*%
D11*
%TO.C,D45*%
X339640637Y-122772500D03*
D12*
X339640637Y-125507500D03*
%TD*%
D23*
%TO.C,LED56*%
X301233707Y-193280190D03*
X300990599Y-191901459D03*
X295672637Y-192839160D03*
X295915745Y-194217891D03*
%TD*%
D13*
%TO.C,LED38*%
X373970637Y-113850000D03*
X373970637Y-112450000D03*
X368570637Y-112450000D03*
X368570637Y-113850000D03*
%TD*%
%TO.C,LED33*%
X393020637Y-132900000D03*
X393020637Y-131500000D03*
X387620637Y-131500000D03*
X387620637Y-132900000D03*
%TD*%
D10*
%TO.C,S44*%
X325870637Y-152650000D03*
X340170637Y-153700000D03*
%TD*%
D13*
%TO.C,LED42*%
X354920637Y-108850000D03*
X354920637Y-107450000D03*
X349520637Y-107450000D03*
X349520637Y-108850000D03*
%TD*%
D11*
%TO.C,D10*%
X93820000Y-144822500D03*
D12*
X93820000Y-147557500D03*
%TD*%
D10*
%TO.C,S31*%
X383020637Y-179700000D03*
X397320637Y-180750000D03*
%TD*%
D22*
%TO.C,S60*%
X247536288Y-221646268D03*
X257532497Y-211366759D03*
%TD*%
D13*
%TO.C,LED49*%
X316820637Y-129400000D03*
X316820637Y-128000000D03*
X311420637Y-128000000D03*
X311420637Y-129400000D03*
%TD*%
D10*
%TO.C,S50*%
X306820637Y-119050000D03*
X321120637Y-120100000D03*
%TD*%
D11*
%TO.C,D33*%
X396790637Y-130772500D03*
D12*
X396790637Y-133507500D03*
%TD*%
D13*
%TO.C,LED8*%
X71000000Y-113850000D03*
X71000000Y-112450000D03*
X65600000Y-112450000D03*
X65600000Y-113850000D03*
%TD*%
D10*
%TO.C,S41*%
X344920637Y-136600000D03*
X359220637Y-137650000D03*
%TD*%
D11*
%TO.C,D31*%
X396790637Y-168872500D03*
D12*
X396790637Y-171607500D03*
%TD*%
D10*
%TO.C,S15*%
X99100000Y-133600000D03*
X113400000Y-134650000D03*
%TD*%
D13*
%TO.C,LED31*%
X393020637Y-171000000D03*
X393020637Y-169600000D03*
X387620637Y-169600000D03*
X387620637Y-171000000D03*
%TD*%
%TO.C,LED23*%
X147200000Y-134900000D03*
X147200000Y-133500000D03*
X141800000Y-133500000D03*
X141800000Y-134900000D03*
%TD*%
D11*
%TO.C,D17*%
X131920000Y-165372500D03*
D12*
X131920000Y-168107500D03*
%TD*%
D13*
%TO.C,LED12*%
X90050000Y-108850000D03*
X90050000Y-107450000D03*
X84650000Y-107450000D03*
X84650000Y-108850000D03*
%TD*%
D10*
%TO.C,S21*%
X137200000Y-181700000D03*
X151500000Y-182750000D03*
%TD*%
D13*
%TO.C,LED43*%
X335870637Y-163000000D03*
X335870637Y-161600000D03*
X330470637Y-161600000D03*
X330470637Y-163000000D03*
%TD*%
D19*
%TO.C,D60*%
X248093126Y-204138053D03*
D20*
X250188258Y-205896077D03*
%TD*%
D13*
%TO.C,LED53*%
X297770637Y-134900000D03*
X297770637Y-133500000D03*
X292370637Y-133500000D03*
X292370637Y-134900000D03*
%TD*%
%TO.C,LED55*%
X326345637Y-191312500D03*
X326345637Y-189912500D03*
X320945637Y-189912500D03*
X320945637Y-191312500D03*
%TD*%
%TO.C,LED13*%
X109100000Y-163000000D03*
X109100000Y-161600000D03*
X103700000Y-161600000D03*
X103700000Y-163000000D03*
%TD*%
%TO.C,LED21*%
X147200000Y-173000000D03*
X147200000Y-171600000D03*
X141800000Y-171600000D03*
X141800000Y-173000000D03*
%TD*%
D11*
%TO.C,D3*%
X55720000Y-130772500D03*
D12*
X55720000Y-133507500D03*
%TD*%
D10*
%TO.C,S24*%
X137200000Y-124550000D03*
X151500000Y-125600000D03*
%TD*%
D24*
%TO.C,D27*%
X173557030Y-210630163D03*
D25*
X171461898Y-212388187D03*
%TD*%
D10*
%TO.C,S8*%
X61000000Y-122550000D03*
X75300000Y-123600000D03*
%TD*%
D13*
%TO.C,LED35*%
X373970637Y-171000000D03*
X373970637Y-169600000D03*
X368570637Y-169600000D03*
X368570637Y-171000000D03*
%TD*%
%TO.C,LED24*%
X147200000Y-115850000D03*
X147200000Y-114450000D03*
X141800000Y-114450000D03*
X141800000Y-115850000D03*
%TD*%
D10*
%TO.C,S2*%
X41950000Y-160650000D03*
X56250000Y-161700000D03*
%TD*%
D11*
%TO.C,D22*%
X150970000Y-151822500D03*
D12*
X150970000Y-154557500D03*
%TD*%
D10*
%TO.C,S51*%
X287770637Y-181700000D03*
X302070637Y-182750000D03*
%TD*%
D11*
%TO.C,D54*%
X301540637Y-113722500D03*
D12*
X301540637Y-116457500D03*
%TD*%
D13*
%TO.C,LED32*%
X393020637Y-151950000D03*
X393020637Y-150550000D03*
X387620637Y-150550000D03*
X387620637Y-151950000D03*
%TD*%
D10*
%TO.C,S16*%
X99100000Y-114550000D03*
X113400000Y-115600000D03*
%TD*%
%TO.C,S37*%
X363970637Y-141600000D03*
X378270637Y-142650000D03*
%TD*%
%TO.C,S18*%
X118150000Y-157150000D03*
X132450000Y-158200000D03*
%TD*%
D15*
%TO.C,S27*%
X156411498Y-207041514D03*
X164799014Y-218670877D03*
%TD*%
D26*
%TO.C,LED29*%
X184064967Y-196826300D03*
X185137430Y-195926398D03*
X181666377Y-191789758D03*
X180593914Y-192689660D03*
%TD*%
D13*
%TO.C,LED2*%
X51950000Y-151950000D03*
X51950000Y-150550000D03*
X46550000Y-150550000D03*
X46550000Y-151950000D03*
%TD*%
D11*
%TO.C,D37*%
X377740637Y-130772500D03*
D12*
X377740637Y-133507500D03*
%TD*%
D10*
%TO.C,S10*%
X80050000Y-155650000D03*
X94350000Y-156700000D03*
%TD*%
D11*
%TO.C,D7*%
X74770000Y-130772500D03*
D12*
X74770000Y-133507500D03*
%TD*%
D11*
%TO.C,D5*%
X74770000Y-168872500D03*
D12*
X74770000Y-171607500D03*
%TD*%
D10*
%TO.C,S6*%
X61000000Y-160650000D03*
X75300000Y-161700000D03*
%TD*%
D11*
%TO.C,D20*%
X131920000Y-108222500D03*
D12*
X131920000Y-110957500D03*
%TD*%
D11*
%TO.C,D4*%
X55720000Y-111722500D03*
D12*
X55720000Y-114457500D03*
%TD*%
D13*
%TO.C,LED41*%
X354920637Y-127900000D03*
X354920637Y-126500000D03*
X349520637Y-126500000D03*
X349520637Y-127900000D03*
%TD*%
D10*
%TO.C,S43*%
X325870637Y-171700000D03*
X340170637Y-172750000D03*
%TD*%
D27*
%TO.C,S56*%
X292896368Y-203584499D03*
X307161449Y-202135376D03*
%TD*%
D10*
%TO.C,S25*%
X108625000Y-200012500D03*
X122925000Y-201062500D03*
%TD*%
D11*
%TO.C,D6*%
X74770000Y-149822500D03*
D12*
X74770000Y-152557500D03*
%TD*%
D16*
%TO.C,LED59*%
X259512542Y-193838726D03*
X258440079Y-192938824D03*
X254969026Y-197075464D03*
X256041489Y-197975366D03*
%TD*%
D13*
%TO.C,LED10*%
X90050000Y-146950000D03*
X90050000Y-145550000D03*
X84650000Y-145550000D03*
X84650000Y-146950000D03*
%TD*%
D11*
%TO.C,D35*%
X377740637Y-168872500D03*
D12*
X377740637Y-171607500D03*
%TD*%
D15*
%TO.C,S30*%
X183185470Y-209312952D03*
X191572986Y-220942315D03*
%TD*%
D11*
%TO.C,D25*%
X122395000Y-189185000D03*
D12*
X122395000Y-191920000D03*
%TD*%
D11*
%TO.C,D11*%
X93820000Y-125772500D03*
D12*
X93820000Y-128507500D03*
%TD*%
D10*
%TO.C,S32*%
X383020637Y-160650000D03*
X397320637Y-161700000D03*
%TD*%
D11*
%TO.C,D12*%
X93820000Y-106722500D03*
D12*
X93820000Y-109457500D03*
%TD*%
D13*
%TO.C,LED54*%
X297770637Y-115850000D03*
X297770637Y-114450000D03*
X292370637Y-114450000D03*
X292370637Y-115850000D03*
%TD*%
D22*
%TO.C,S57*%
X274310259Y-219374830D03*
X284306468Y-209095321D03*
%TD*%
D13*
%TO.C,LED37*%
X373970637Y-132900000D03*
X373970637Y-131500000D03*
X368570637Y-131500000D03*
X368570637Y-132900000D03*
%TD*%
D26*
%TO.C,LED28*%
X181749064Y-223702853D03*
X182821527Y-222802951D03*
X179350474Y-218666311D03*
X178278011Y-219566213D03*
%TD*%
D24*
%TO.C,D29*%
X188118037Y-198346757D03*
D25*
X186022905Y-200104781D03*
%TD*%
D19*
%TO.C,D59*%
X260306091Y-189583209D03*
D20*
X262401223Y-191341233D03*
%TD*%
D24*
%TO.C,D30*%
X200331001Y-212901601D03*
D25*
X198235869Y-214659625D03*
%TD*%
D11*
%TO.C,D50*%
X320590637Y-108222500D03*
D12*
X320590637Y-110957500D03*
%TD*%
D11*
%TO.C,D38*%
X377740637Y-111722500D03*
D12*
X377740637Y-114457500D03*
%TD*%
D26*
%TO.C,LED27*%
X169503960Y-209109706D03*
X170576423Y-208209804D03*
X167105370Y-204073164D03*
X166032907Y-204973066D03*
%TD*%
D13*
%TO.C,LED18*%
X128150000Y-148450000D03*
X128150000Y-147050000D03*
X122750000Y-147050000D03*
X122750000Y-148450000D03*
%TD*%
D10*
%TO.C,S13*%
X99100000Y-171700000D03*
X113400000Y-172750000D03*
%TD*%
D13*
%TO.C,LED45*%
X335870637Y-124900000D03*
X335870637Y-123500000D03*
X330470637Y-123500000D03*
X330470637Y-124900000D03*
%TD*%
%TO.C,LED14*%
X109100000Y-143950000D03*
X109100000Y-142550000D03*
X103700000Y-142550000D03*
X103700000Y-143950000D03*
%TD*%
D11*
%TO.C,D40*%
X358690637Y-144822500D03*
D12*
X358690637Y-147557500D03*
%TD*%
D10*
%TO.C,S45*%
X325870637Y-133600000D03*
X340170637Y-134650000D03*
%TD*%
D24*
%TO.C,D28*%
X185802134Y-225223310D03*
D25*
X183707002Y-226981334D03*
%TD*%
D11*
%TO.C,D48*%
X320590637Y-146322500D03*
D12*
X320590637Y-149057500D03*
%TD*%
D16*
%TO.C,LED57*%
X274073549Y-206122133D03*
X273001086Y-205222231D03*
X269530033Y-209358871D03*
X270602496Y-210258773D03*
%TD*%
%TO.C,LED58*%
X261828445Y-220715279D03*
X260755982Y-219815377D03*
X257284929Y-223952017D03*
X258357392Y-224851919D03*
%TD*%
D11*
%TO.C,D47*%
X320590637Y-165372500D03*
D12*
X320590637Y-168107500D03*
%TD*%
D11*
%TO.C,D43*%
X339640637Y-160872500D03*
D12*
X339640637Y-163607500D03*
%TD*%
D11*
%TO.C,D52*%
X301540637Y-151822500D03*
D12*
X301540637Y-154557500D03*
%TD*%
D10*
%TO.C,S48*%
X306820637Y-157150000D03*
X321120637Y-158200000D03*
%TD*%
D11*
%TO.C,D32*%
X396790637Y-149822500D03*
D12*
X396790637Y-152557500D03*
%TD*%
D13*
%TO.C,LED20*%
X128150000Y-110350000D03*
X128150000Y-108950000D03*
X122750000Y-108950000D03*
X122750000Y-110350000D03*
%TD*%
D10*
%TO.C,S38*%
X363970637Y-122550000D03*
X378270637Y-123600000D03*
%TD*%
D28*
%TO.C,D26*%
X147759843Y-192516894D03*
D29*
X147284915Y-195210343D03*
%TD*%
D13*
%TO.C,LED1*%
X51950000Y-171000000D03*
X51950000Y-169600000D03*
X46550000Y-169600000D03*
X46550000Y-171000000D03*
%TD*%
%TO.C,LED47*%
X316820637Y-167500000D03*
X316820637Y-166100000D03*
X311420637Y-166100000D03*
X311420637Y-167500000D03*
%TD*%
D10*
%TO.C,S11*%
X80050000Y-136600000D03*
X94350000Y-137650000D03*
%TD*%
D13*
%TO.C,LED16*%
X109100000Y-105850000D03*
X109100000Y-104450000D03*
X103700000Y-104450000D03*
X103700000Y-105850000D03*
%TD*%
D11*
%TO.C,D15*%
X112870000Y-122772500D03*
D12*
X112870000Y-125507500D03*
%TD*%
D11*
%TO.C,D16*%
X112870000Y-103722500D03*
D12*
X112870000Y-106457500D03*
%TD*%
D10*
%TO.C,S42*%
X344920637Y-117550000D03*
X359220637Y-118600000D03*
%TD*%
D19*
%TO.C,D57*%
X274867098Y-201866615D03*
D20*
X276962230Y-203624639D03*
%TD*%
D11*
%TO.C,D21*%
X150970000Y-170872500D03*
D12*
X150970000Y-173607500D03*
%TD*%
D10*
%TO.C,S55*%
X316345637Y-200012500D03*
X330645637Y-201062500D03*
%TD*%
D11*
%TO.C,D51*%
X301540637Y-170872500D03*
D12*
X301540637Y-173607500D03*
%TD*%
D10*
%TO.C,S46*%
X325870637Y-114550000D03*
X340170637Y-115600000D03*
%TD*%
D11*
%TO.C,D42*%
X358690637Y-106722500D03*
D12*
X358690637Y-109457500D03*
%TD*%
D22*
%TO.C,S58*%
X262065155Y-233967977D03*
X272061364Y-223688468D03*
%TD*%
D10*
%TO.C,S40*%
X344920637Y-155650000D03*
X359220637Y-156700000D03*
%TD*%
D13*
%TO.C,LED7*%
X71000000Y-132900000D03*
X71000000Y-131500000D03*
X65600000Y-131500000D03*
X65600000Y-132900000D03*
%TD*%
D26*
%TO.C,LED30*%
X196277932Y-211381144D03*
X197350395Y-210481242D03*
X193879342Y-206344602D03*
X192806879Y-207244504D03*
%TD*%
D11*
%TO.C,D9*%
X93820000Y-163872500D03*
D12*
X93820000Y-166607500D03*
%TD*%
D10*
%TO.C,S35*%
X363970637Y-179700000D03*
X378270637Y-180750000D03*
%TD*%
D13*
%TO.C,LED5*%
X71000000Y-171000000D03*
X71000000Y-169600000D03*
X65600000Y-169600000D03*
X65600000Y-171000000D03*
%TD*%
M02*
